<svg xmlns="http://www.w3.org/2000/svg" viewBox="0 0 896.58 277.16">
    <defs>
        <style>.cls-1{fill:#1d1d1b;}.cls-2{fill:#575756;}.cls-3{fill:#95c23d;}</style>
    </defs>
    <title>Asset 2</title>
    <g id="Layer_2" data-name="Layer 2">
        <g id="Layer_1-2" data-name="Layer 1">
            <path class="cls-1"
                  d="M68.28,256.17l-1.84-.5.84-2.91a3.76,3.76,0,0,1,.88-1.61,4.42,4.42,0,0,1,1.36-1,4.77,4.77,0,0,1,1.55-.42,3.7,3.7,0,0,1,1.5.15l13.6,4.1-.65,1.92-2-.61a1.69,1.69,0,0,0-1.11,0,3.15,3.15,0,0,0-1,.51v3.3a3.11,3.11,0,0,0,3.11,3.14h5a.61.61,0,0,1,.41.15.52.52,0,0,1,.17.39v1.41a.51.51,0,0,1-.17.39.61.61,0,0,1-.41.15H84.83a5,5,0,0,1-2.13-.44,5.27,5.27,0,0,1-2.79-3,6,6,0,0,1-.41-2.18v-2l-7.74,5.7a6.9,6.9,0,0,0-1.93,2.24,5.67,5.67,0,0,0-.67,2.86,6.42,6.42,0,0,0,.54,2.61,6.86,6.86,0,0,0,1.45,2.14,7,7,0,0,0,2.15,1.46,6.5,6.5,0,0,0,2.6.53h8.66v2.49H75.9a8.95,8.95,0,0,1-6.3-2.58,9.34,9.34,0,0,1-1.92-2.82,8.49,8.49,0,0,1-.71-3.45,8.73,8.73,0,0,1,1-4.08,9.21,9.21,0,0,1,2.72-3.16c.56-.41,1.23-.89,2-1.46L75,257.89l2.32-1.7c.74-.55,1.36-1,1.88-1.36a2.92,2.92,0,0,1,.4-.29,4.6,4.6,0,0,1,.44-.25l-8.43-2.49a1.76,1.76,0,0,0-1.53.27,2.26,2.26,0,0,0-1,1.26Z"/>
            <path class="cls-1"
                  d="M89,262.76a.47.47,0,0,1,.53-.54h2.3a3,3,0,0,0,2.19-.9,3,3,0,0,0,.92-2.2V239.81H97v19.31a5.58,5.58,0,0,1-1.64,4,5.89,5.89,0,0,1-1.79,1.19,5.22,5.22,0,0,1-2.16.44H89.5a.47.47,0,0,1-.53-.54Z"/>
            <path class="cls-1"
                  d="M110.19,264.17a.47.47,0,0,1-.53.54h-1.54a5.28,5.28,0,0,1-2.16-.44,5.6,5.6,0,0,1-2.95-2.95,5.45,5.45,0,0,1-.44-2.16V239.81h2.11v19.35a3.07,3.07,0,0,0,3.06,3.06h1.92a.5.5,0,0,1,.38.17.6.6,0,0,1,.15.4Z"/>
            <path class="cls-1"
                  d="M116.4,259.23a3.32,3.32,0,0,0,.13,1,2,2,0,0,0,.33.64,1.08,1.08,0,0,0,.46.42l6.67-7.2a7.55,7.55,0,0,1,2.43-1.75,7.13,7.13,0,0,1,3-.63h2.38a5,5,0,0,1,1.95.4,5.23,5.23,0,0,1,2.7,2.7,4.84,4.84,0,0,1,.4,2v2.57a2.61,2.61,0,0,0,.92,2,3.2,3.2,0,0,0,2.15.8H141a.47.47,0,0,1,.53.54v1.41a.57.57,0,0,1-.15.37.5.5,0,0,1-.38.17h-.77a5.09,5.09,0,0,1-2.55-.65,4.58,4.58,0,0,1-1.85-1.92,4.48,4.48,0,0,1-4.1,2.57H119.89a6.67,6.67,0,0,1-2.84-.57,3.73,3.73,0,0,1-1.84-2,5,5,0,0,1-4.4,2.6h-1.15a.55.55,0,0,1-.37-.17.58.58,0,0,1-.17-.4v-1.38a.52.52,0,0,1,.17-.39.57.57,0,0,1,.37-.15h1.53a3,3,0,0,0,2.2-.9,3,3,0,0,0,.9-2.16v-5h2.11Zm15.56,3a2.69,2.69,0,0,0,1.95-.8,2.62,2.62,0,0,0,.81-1.92V257a2.78,2.78,0,0,0-.87-2.07,2.87,2.87,0,0,0-2.08-.84h-2.38a5.69,5.69,0,0,0-2.34.5,6.08,6.08,0,0,0-2,1.38l-5.9,6.28Z"/>
            <path class="cls-1"
                  d="M145.52,259.54l.77-4a4.4,4.4,0,0,1,.57-1.53,4.84,4.84,0,0,1,1-1.21,5.13,5.13,0,0,1,1.4-.8,4.59,4.59,0,0,1,1.61-.29h2.15a4.93,4.93,0,0,1,2,.4,5.29,5.29,0,0,1,1.61,1.08,4.69,4.69,0,0,1,1.09,1.59,4.77,4.77,0,0,1,.41,1.95v4.9a3,3,0,0,1-.81,2.23,3.07,3.07,0,0,1-2.26.8h-4.79a4.33,4.33,0,0,1-2.26-.61,3.82,3.82,0,0,1-1.57-2,4.18,4.18,0,0,1-1.82,2,5.15,5.15,0,0,1-2.43.61H141a.48.48,0,0,1-.54-.54v-1.41a.57.57,0,0,1,.15-.37.52.52,0,0,1,.39-.17h1.22a3.25,3.25,0,0,0,2.13-.77A3.09,3.09,0,0,0,145.52,259.54Zm4.56,2.68H156v-5.44a2.57,2.57,0,0,0-.81-1.93,2.65,2.65,0,0,0-2-.79H151a2.7,2.7,0,0,0-2.68,2.18l-.58,3.11a2.35,2.35,0,0,0,0,1.09,2.79,2.79,0,0,0,.48.92,2.28,2.28,0,0,0,.81.63A2.45,2.45,0,0,0,150.08,262.22Z"/>
            <path class="cls-1"
                  d="M172.88,264.71a3.79,3.79,0,0,1-3.83-3.83v-3.75h1.8v3.21a2.05,2.05,0,0,0,.44,1.33,1.57,1.57,0,0,0,1.32.55h5.9a3.73,3.73,0,0,0,2.11-.54,3,3,0,0,0,1.15-1.34,3.89,3.89,0,0,0,.3-1.7,3.22,3.22,0,0,0-.46-1.59l-4.29-7.67,1.76-1.22,4.14,7.43a6.86,6.86,0,0,1,.94,3.28,6,6,0,0,1-.69,2.93,5.53,5.53,0,0,1-2.05,2.11,5.88,5.88,0,0,1-3.07.8Z"/>
            <path class="cls-1"
                  d="M182.38,274.17l-.69-2.18,4.36-1.42a5.37,5.37,0,0,0,2.76-2,5.55,5.55,0,0,0,1-3.29V253.49H192v11.6a8.08,8.08,0,0,1-.39,2.51,7.65,7.65,0,0,1-1.11,2.21,9.15,9.15,0,0,1-1.74,1.78,8.23,8.23,0,0,1-2.24,1.21Z"/>
            <path class="cls-1" d="M200.19,264.71h-2.1v-24.9h2.1Z"/>
            <path class="cls-1"
                  d="M224.33,262.22h.73a.5.5,0,0,1,.38.17.61.61,0,0,1,.16.4v1.38a.48.48,0,0,1-.54.54h-.73a4.7,4.7,0,0,1-2.64-.78,5.31,5.31,0,0,1-1.88-2.36,5.16,5.16,0,0,1-2,2.34,5.23,5.23,0,0,1-2.76.8h-5.33a3.64,3.64,0,0,1-2.7-1.11,3.77,3.77,0,0,1-1.09-2.72v-3.75h1.8v3.17a2.19,2.19,0,0,0,.44,1.35,1.58,1.58,0,0,0,1.32.57h5.56a3.34,3.34,0,0,0,1.59-.38,3.78,3.78,0,0,0,1.19-1,3.46,3.46,0,0,0,.65-1.4,3.11,3.11,0,0,0-.06-1.57l-2.76-10.07,2-.73,3.52,12.72a3.42,3.42,0,0,0,1.17,1.76A3.05,3.05,0,0,0,224.33,262.22Z"/>
            <path class="cls-1"
                  d="M229.08,262.22a3.07,3.07,0,0,0,3.07-3.06v-6.75h2.11v6.75a5.45,5.45,0,0,1-.44,2.16,5.6,5.6,0,0,1-2.95,2.95,5.3,5.3,0,0,1-2.17.44h-3.64a.48.48,0,0,1-.54-.54v-1.38a.61.61,0,0,1,.16-.4.5.5,0,0,1,.38-.17Zm2.53-14.71h2.88v-2.88h-2.88Z"/>
            <path class="cls-1"
                  d="M247.67,264.17a.48.48,0,0,1-.54.54H245.6a5.3,5.3,0,0,1-2.17-.44,5.64,5.64,0,0,1-1.76-1.19,5.53,5.53,0,0,1-1.19-1.76,5.45,5.45,0,0,1-.44-2.16V239.81h2.11v19.35a3.07,3.07,0,0,0,3.06,3.06h1.92a.5.5,0,0,1,.38.17.61.61,0,0,1,.16.4Z"/>
            <path class="cls-1"
                  d="M260.54,264.17a.48.48,0,0,1-.54.54h-2.22a4.5,4.5,0,0,1-1.3-.19,5.22,5.22,0,0,1-1.23-.54,4.16,4.16,0,0,1-1-.82,2.49,2.49,0,0,1-.58-1.05,5.54,5.54,0,0,1-1.86,1.87,4.61,4.61,0,0,1-2.51.73h-2.18a.48.48,0,0,1-.54-.54v-1.41a.48.48,0,0,1,.54-.54h2.18a3.23,3.23,0,0,0,2.15-.77,3.32,3.32,0,0,0,1.15-1.91l1.15-5.79,2.07.35-1,4.82a2.5,2.5,0,0,0,.08,1.25,2.72,2.72,0,0,0,.59,1.05,2.85,2.85,0,0,0,1,.73,3,3,0,0,0,1.28.27H260a.48.48,0,0,1,.54.54Zm-10.65-15.28h2.87V246h-2.87Zm4.86,0h2.88V246h-2.88Z"/>
            <path class="cls-1"
                  d="M270.08,264.71a5,5,0,0,1-2.55-.67,5.41,5.41,0,0,1-1.93-1.93,5.18,5.18,0,0,1-1.9,1.93,5.08,5.08,0,0,1-2.59.67H260a.47.47,0,0,1-.53-.54v-1.41a.47.47,0,0,1,.53-.54h1.5a3,3,0,0,0,2.16-.9,3,3,0,0,0,.9-2.2v-5.67h2.11v5.74a2.89,2.89,0,0,0,.9,2.15,2.93,2.93,0,0,0,2.13.88h.53a3.21,3.21,0,0,0,2.15-.77,3.27,3.27,0,0,0,1.15-1.95l1.15-5.75,2.07.35-1,4.79a2.6,2.6,0,0,0,.08,1.28,2.72,2.72,0,0,0,.59,1.05,2.85,2.85,0,0,0,1,.73,3,3,0,0,0,1.28.27h3.45v-9.88h2.1v9.34a3,3,0,0,1-.8,2.23,3,3,0,0,1-2.22.8H278.7a4.68,4.68,0,0,1-2.45-.69,4.12,4.12,0,0,1-1.69-1.91,5.09,5.09,0,0,1-4.48,2.6Z"/>
            <path class="cls-1" d="M292,264.71h-2.11v-24.9H292Z"/>
            <path class="cls-1"
                  d="M324.56,262.22a3,3,0,0,0,2.19-.9,3,3,0,0,0,.92-2.2v-6.71h2.1v6.71a5.58,5.58,0,0,1-1.64,4,6,6,0,0,1-1.78,1.19,5.3,5.3,0,0,1-2.17.44H309.62a6.19,6.19,0,0,1-2.53-.52,6.79,6.79,0,0,1-2.09-1.4,6.3,6.3,0,0,1-1.41-2.06,6.19,6.19,0,0,1-.52-2.53v-5.79h2.11v5.4a4.34,4.34,0,0,0,.34,1.73,4.26,4.26,0,0,0,1,1.4,4.75,4.75,0,0,0,1.42.94,4.29,4.29,0,0,0,1.72.34Zm-12-9.81h2.88v-2.87h-2.88Zm4.87,0h2.87v-2.87H317.4Z"/>
            <path class="cls-1"
                  d="M328,274.17l-.69-2.18,4.37-1.42a5.37,5.37,0,0,0,2.76-2,5.54,5.54,0,0,0,1-3.29V253.49h2.11v11.6a8.38,8.38,0,0,1-.38,2.51,7.91,7.91,0,0,1-1.11,2.21,9.21,9.21,0,0,1-1.75,1.78,8,8,0,0,1-2.24,1.21Z"/>
            <path class="cls-1"
                  d="M351.31,264.17a.48.48,0,0,1-.54.54h-1.53a5.3,5.3,0,0,1-2.17-.44,5.64,5.64,0,0,1-1.76-1.19,5.53,5.53,0,0,1-1.19-1.76,5.45,5.45,0,0,1-.44-2.16V239.81h2.11v19.35a3.07,3.07,0,0,0,3.06,3.06h1.92a.5.5,0,0,1,.38.17.61.61,0,0,1,.16.4Z"/>
            <path class="cls-1"
                  d="M378.36,264.17a.52.52,0,0,1-.18.37.51.51,0,0,1-.36.17h-.77a5,5,0,0,1-2.54-.65,4.74,4.74,0,0,1-1.86-1.88,4.53,4.53,0,0,1-4.18,2.53h-17.7a.48.48,0,0,1-.54-.54v-1.41a.48.48,0,0,1,.54-.54h2.41l4.37-4.67V239.81h2.11V254.1a5.15,5.15,0,0,1-.08.94,1.13,1.13,0,0,1-.11.4l.19-.21a4.12,4.12,0,0,1,.36-.38l.41-.43a3.37,3.37,0,0,1,.3-.32,7.86,7.86,0,0,1,2.45-1.73,7.35,7.35,0,0,1,2.95-.61h2.38a4.93,4.93,0,0,1,1.95.4,5.29,5.29,0,0,1,1.61,1.08,4.86,4.86,0,0,1,1.1,1.59,4.93,4.93,0,0,1,.4,1.95v2.34a3.07,3.07,0,0,0,3.1,3.1h1.15a.53.53,0,0,1,.36.15.5.5,0,0,1,.18.39Zm-9.66-1.95a2.64,2.64,0,0,0,2-.82,2.72,2.72,0,0,0,.8-1.94V257a2.81,2.81,0,0,0-.86-2.07,2.89,2.89,0,0,0-2.09-.84h-2.38a5.95,5.95,0,0,0-4.29,1.84l-5.9,6.32ZM365.14,244H368v2.87h-2.87Z"/>
            <path class="cls-1"
                  d="M381.84,262.22a3.07,3.07,0,0,0,3.07-3.06v-6.75H387v6.75a5.45,5.45,0,0,1-.44,2.16,5.6,5.6,0,0,1-2.95,2.95,5.3,5.3,0,0,1-2.17.44h-3.64a.48.48,0,0,1-.54-.54v-1.38a.61.61,0,0,1,.16-.4.5.5,0,0,1,.38-.17Zm2.53-14.71h2.88v-2.88h-2.88Z"/>
            <path class="cls-1"
                  d="M398.16,256.09a5.63,5.63,0,0,1,4.41-5.86l5.4-1.42v-3.22h2.11v13.3a2.9,2.9,0,0,0,.29,1.28,3.62,3.62,0,0,0,.76,1.05,3.56,3.56,0,0,0,1.12.73,3.32,3.32,0,0,0,1.32.27h1.15a.47.47,0,0,1,.53.54v1.41a.47.47,0,0,1-.53.54h-1.15a5.32,5.32,0,0,1-3.11-1,5.74,5.74,0,0,1-2-2.45,3.14,3.14,0,0,1-.67.38,1.85,1.85,0,0,1-.78.16h-5.63c-2.13,0-3.19-1.08-3.19-3.22Zm9.81-5-5,1.3a3.23,3.23,0,0,0-1.12.54,3.82,3.82,0,0,0-.87.88,3.94,3.94,0,0,0-.53,1.09,3.87,3.87,0,0,0-.19,1.21v3.18H408Z"/>
            <path class="cls-1"
                  d="M418.74,262.22a3,3,0,0,0,2.17-.9,3,3,0,0,0,.9-2.16v-6.75h2.1v6.75a5.28,5.28,0,0,1-.44,2.16,5.53,5.53,0,0,1-1.19,1.76,5.42,5.42,0,0,1-1.76,1.19,5.25,5.25,0,0,1-2.16.44h-3.64a.48.48,0,0,1-.54-.54v-1.38a.6.6,0,0,1,.15-.4.54.54,0,0,1,.39-.17Zm2.53-14.71h2.87v-2.88h-2.87Z"/>
            <path class="cls-1"
                  d="M437.32,264.17a.47.47,0,0,1-.53.54h-1.54a5.28,5.28,0,0,1-2.16-.44,5.57,5.57,0,0,1-1.77-1.19,5.67,5.67,0,0,1-1.18-1.76,5.28,5.28,0,0,1-.44-2.16V239.81h2.1v19.35a3.09,3.09,0,0,0,3.07,3.06h1.92a.5.5,0,0,1,.38.17.6.6,0,0,1,.15.4Z"/>
            <path class="cls-1"
                  d="M441.27,259.54l.76-4a4.63,4.63,0,0,1,.58-1.53,4.84,4.84,0,0,1,1.05-1.21,5,5,0,0,1,1.4-.8,4.59,4.59,0,0,1,1.61-.29h2.15a4.93,4.93,0,0,1,1.95.4,5.42,5.42,0,0,1,1.61,1.08,4.84,4.84,0,0,1,1.09,1.59,4.76,4.76,0,0,1,.4,1.95v4.9a3,3,0,0,1-.8,2.23,3.09,3.09,0,0,1-2.26.8H446a4.33,4.33,0,0,1-2.26-.61,3.82,3.82,0,0,1-1.57-2,4.18,4.18,0,0,1-1.82,2,5.15,5.15,0,0,1-2.43.61h-1.15a.48.48,0,0,1-.54-.54v-1.41a.57.57,0,0,1,.15-.37.51.51,0,0,1,.39-.17H438a3.25,3.25,0,0,0,2.13-.77A3.09,3.09,0,0,0,441.27,259.54Zm4.56,2.68h5.94v-5.44a2.57,2.57,0,0,0-.81-1.93,2.66,2.66,0,0,0-1.95-.79h-2.3a2.7,2.7,0,0,0-2.68,2.18l-.58,3.11a2.35,2.35,0,0,0,0,1.09,2.61,2.61,0,0,0,.48.92,2.24,2.24,0,0,0,.8.63A2.49,2.49,0,0,0,445.83,262.22Z"/>
            <path class="cls-1"
                  d="M467.05,264.17a.47.47,0,0,1-.53.54H465a5.28,5.28,0,0,1-2.16-.44,5.6,5.6,0,0,1-2.95-2.95,5.45,5.45,0,0,1-.44-2.16V239.81h2.11v19.35a3.07,3.07,0,0,0,3.06,3.06h1.92a.5.5,0,0,1,.38.17.6.6,0,0,1,.15.4Z"/>
            <path class="cls-1"
                  d="M476.59,264.71a5,5,0,0,1-2.54-.67,5.43,5.43,0,0,1-1.94-1.93,5.11,5.11,0,0,1-1.9,1.93,5,5,0,0,1-2.58.67h-1.11a.48.48,0,0,1-.54-.54v-1.41a.48.48,0,0,1,.54-.54H468a3.07,3.07,0,0,0,3.07-3.1v-5.67h2.1v5.74a2.89,2.89,0,0,0,.9,2.15,3,3,0,0,0,2.13.88h.54a3.18,3.18,0,0,0,2.14-.77A3.23,3.23,0,0,0,480,259.5l1.15-5.75,2.07.35-1,4.79a2.72,2.72,0,0,0,.08,1.28,3,3,0,0,0,.59,1.05,2.85,2.85,0,0,0,1,.73,3.06,3.06,0,0,0,1.28.27h3.45v-9.88h2.11v9.34a2.79,2.79,0,0,1-3,3h-2.57a4.71,4.71,0,0,1-2.45-.69,4.16,4.16,0,0,1-1.68-1.91,5.16,5.16,0,0,1-2,1.95A5.1,5.1,0,0,1,476.59,264.71Z"/>
            <path class="cls-2"
                  d="M826.25,173l-.08-.17a2.41,2.41,0,0,0-.63-.72s0,0,0-.05-.09,0-.12,0a2.23,2.23,0,0,0-.33-.2l-17.47-7.2-6.5,2.35,16.64,6.86L703,215.51l-69.59-28.69L626.5,184l-.64-.26c3-1.06,7.23-2.6,13.34-4.81l2.84-1-6.38-2.63-16.9,6.13a1.4,1.4,0,0,0-.6.29,2.33,2.33,0,0,0-.76.83c0,.11,0,.24-.09.35a2.62,2.62,0,0,0-.19.73h0V239a2.33,2.33,0,0,0,1.44,2.15L702,275.58h.08a2.24,2.24,0,0,0,.8.16,2.35,2.35,0,0,0,.74-.13h.06l121.23-44a2.34,2.34,0,0,0,1.54-2.19V174s0,0,0-.06A2.29,2.29,0,0,0,826.25,173ZM700.6,270l-78.82-32.49V187.08l78.38,32.3.44.19Zm121.23-42.16L705.25,270.11V219.64l116.58-42.32Z"/>
            <polygon class="cls-3"
                     points="702.48 146.05 617.02 110.83 617.02 167.57 702.48 202.79 896.58 132.34 896.58 75.6 702.48 146.05"/>
            <path class="cls-2"
                  d="M826.47,36.7a2.29,2.29,0,0,0-.22-.9l-.08-.18a2.41,2.41,0,0,0-.63-.72s0,0,0,0l-.11,0a2.23,2.23,0,0,0-.33-.2L741.57.18a2.27,2.27,0,0,0-1.68,0c-1.19.43-117.79,42.8-121.13,44a1.67,1.67,0,0,0-.6.29,2.44,2.44,0,0,0-.76.84,3.37,3.37,0,0,0-.09.34,2.62,2.62,0,0,0-.19.73v0h0v55.41a2.33,2.33,0,0,0,1.44,2.16L702,138.33l.08,0a2.48,2.48,0,0,0,.8.16,2.35,2.35,0,0,0,.74-.13h.06L825,94.36a2.33,2.33,0,0,0,1.54-2.19V36.76S826.47,36.72,826.47,36.7ZM740.63,4.82l77.09,31.8L703,78.27,633.39,49.58l-6.89-2.83-.64-.27c3-1,7.23-2.59,13.34-4.81Zm-118.85,45,78.38,32.31.44.18v50.39l-78.82-32.49ZM821.83,90.54,705.25,132.86V82.39L821.83,40.08Z"/>
            <rect class="cls-3" x="216.53" y="72.37" width="45.94" height="45.94"
                  transform="translate(2.74 197.27) rotate(-45)"/>
            <polygon class="cls-3"
                     points="237.91 168.23 180.34 144.5 180.34 22.74 125.16 0 125.16 182.81 146.42 191.26 146.42 191.26 237.91 228.97 493.3 136.27 493.3 75.53 237.91 168.23"/>
            <polygon class="cls-3"
                     points="0 108.92 0 108.92 0 249.41 55.18 272.17 55.18 144.54 112.88 123.6 112.88 62.85 0 103.83 0 108.92"/>
            <rect class="cls-1" x="548.58" y="0.56" width="1.08" height="275.19"/>
        </g>
    </g>
</svg>